<?xml version="1.0" encoding="utf-8"?>
<!-- Generator: Adobe Illustrator 25.2.1, SVG Export Plug-In . SVG Version: 6.00 Build 0)  -->
<svg version="1.1" id="Layer_1" xmlns="http://www.w3.org/2000/svg" xmlns:xlink="http://www.w3.org/1999/xlink" x="0px" y="0px"
	 viewBox="0 0 176.7 90.5" style="enable-background:new 0 0 176.7 90.5;" xml:space="preserve">
<style type="text/css">
	.st0{fill:url(#SVGID_1_);}
	.st1{fill:url(#SVGID_2_);}
	.st2{fill:url(#SVGID_3_);}
	.st3{fill:#6E1E6F;}
</style>
<g id="Layer_2_2_">
	<g id="content_1_">
		
			<linearGradient id="SVGID_1_" gradientUnits="userSpaceOnUse" x1="0" y1="61.6896" x2="64.3748" y2="61.6896" gradientTransform="matrix(1 0 0 -1 0 92)">
			<stop  offset="0.1" style="stop-color:#E5A923"/>
			<stop  offset="0.6" style="stop-color:#EDC365"/>
			<stop  offset="0.9" style="stop-color:#E5A923"/>
		</linearGradient>
		<path class="st0" d="M0,45.6C0.1,32.3,10.9,13.3,32.9,9.8c18.5-3,28.2,6.1,30.6,11.4c4.2,9.3-7.7,15.6-15.1,17.4
			c5.2-1.9,12.4-6.6,10.5-14.9c-1-4-6.7-12.2-24-10.3c-12.6,1.4-30.1,11.1-24.9,38C7.8,49.2,3.8,46.7,0,45.6z"/>
		
			<linearGradient id="SVGID_2_" gradientUnits="userSpaceOnUse" x1="6.767" y1="63.8208" x2="64.5685" y2="68.8789" gradientTransform="matrix(1 0 0 -1 0 92)">
			<stop  offset="5.000000e-02" style="stop-color:#6E1E6F"/>
			<stop  offset="0.18" style="stop-color:#8B4B8C"/>
			<stop  offset="0.4" style="stop-color:#6E1E6F"/>
			<stop  offset="0.6" style="stop-color:#6E1E6F"/>
			<stop  offset="0.8" style="stop-color:#8B4B8C"/>
			<stop  offset="1" style="stop-color:#9A629A"/>
		</linearGradient>
		<path class="st1" d="M20.3,2.5C4.7,4.1,2.8,41.9,35.8,41.1c12-0.3,33.1-9,26.9-21.5c7.5,12-4.3,29.3-26.6,30.7
			C9.9,51.9,2.6,28.6,8.2,11.4C10.1,5.6,15.3,2,20.3,2.5z"/>
		
			<linearGradient id="SVGID_3_" gradientUnits="userSpaceOnUse" x1="23.8601" y1="10.6696" x2="29.8081" y2="-57.7341" gradientTransform="matrix(1 -7.000000e-02 0 -1 0 23.46)">
			<stop  offset="0" style="stop-color:#A878A9"/>
			<stop  offset="0.4" style="stop-color:#925693"/>
			<stop  offset="0.9" style="stop-color:#6E1E6F"/>
		</linearGradient>
		<path class="st2" d="M8.3,11.1C11.7,0.8,21.1-3.3,29.4,3c19,14.5,12.8,70.1,3.5,87.4c-1.9-2.8-4.4-5.2-7.2-7
			c-2.5-1.6-5.2-2.8-8.1-3.7c0,0,1.8-1.7,2.4-2.3c22.3-22.6,18.1-76,0.1-74.9C15.7,2.8,10.3,5.6,8.3,11.1z"/>
		<path class="st3" d="M85.1,14.9c-1.2,0.3-2.4,0.6-3.7,0.7v1h4.1v0.8h-4.1v2.1h2.6v4.9h-0.9v-0.6h-4.4v0.6H78v-4.6
			c-0.5,0.2-0.9,0.4-1.4,0.6l-0.6-0.7c1.5-0.5,2.9-1.2,3.7-2.3h-3.1v-0.8h4.1v-0.9c-1,0.1-2.2,0.2-3.3,0.2l-0.6-0.8
			c2.8,0,5.8-0.2,7.8-0.8L85.1,14.9z M80.6,17.6c-0.5,0.7-1.2,1.4-2,1.8l2,0V17.6z M83.2,20.3h-4.4v0.9h4.4L83.2,20.3z M83.2,23v-1
			h-4.4v1L83.2,23z M82.2,17.4c1.4,0.4,2.7,1.1,3.8,2.1l-0.6,0.7c-1.1-1-2.4-1.8-3.9-2.1L82.2,17.4z"/>
		<path class="st3" d="M90.6,19.1c-0.4-0.7-1-1.2-1.8-1.4l0.5-0.6c0.8,0.3,1.5,0.8,1.9,1.5L90.6,19.1z M91.4,20.2
			c-0.2,1.5-0.7,2.9-1.6,4.2l-0.8-0.5c0.9-1,1.5-3.2,1.7-4.1l0.8,0.3c0.8-0.4,1.5-1,1.9-1.7h-1.8v-0.8h1.7v-1.2H92v-0.8h1.3v-1.3
			h0.9v1.3h1.9v-1.3h0.9v1.3h1.3v0.8h-1.3v1.2h1.7v0.8h-1.8c0.6,0.8,1.4,1.5,2.3,1.9l-0.6,0.7c-0.5-0.2-0.9-0.5-1.3-0.9v2h-3.5v0.7
			c0,0.2,0,0.4,0.3,0.4h3c0.4,0,0.4-0.4,0.5-1.1h0.8c0,0.9-0.1,1.9-1.2,1.9h-3.5c-0.5,0-0.9-0.3-0.9-0.8c0,0,0-0.1,0-0.1v-2.9
			c-0.3,0.3-0.7,0.5-1.1,0.7L91.4,20.2z M91,16.5c-0.4-0.7-1.1-1.2-1.8-1.4l0.7-0.6c0.7,0.2,1.4,0.7,1.8,1.4L91,16.5z M94.2,18.3
			c-0.1,0.4-0.3,0.7-0.6,1h3c-0.3-0.3-0.5-0.6-0.7-1L94.2,18.3z M93.8,21.2h2.6v-1h-2.6L93.8,21.2z M94.1,16.3v1.2h1.9v-1.2
			L94.1,16.3z"/>
		<path class="st3" d="M102.5,21.4v-5.1h3.8v-2.1h0.9l0,2.1h3.8v5.1H110v-0.8h-2.8l0,3.9h-0.9v-3.9h-2.8l0,0.8L102.5,21.4z
			 M106.3,17.1h-2.8v2.6h2.9L106.3,17.1z M110,17.1h-2.8v2.6h2.8L110,17.1z"/>
		<path class="st3" d="M114.6,23.7c1.7-0.6,3.3-1.1,4.5-2.2c-1.2-1.2-1.8-2.9-2.1-4.5h-1.9v-0.9h4.6c-0.4-0.6-1-1.2-1.7-1.5l0.7-0.6
			c0.7,0.4,1.4,0.9,1.8,1.6l-0.6,0.5h4.3V17h-1.8c-0.2,1.7-0.9,3.2-2,4.5c1.2,1,2.7,1.6,4.4,2.2l-0.6,0.7c-1.6-0.5-3.1-1.2-4.5-2.3
			c-1.3,1.2-3.5,2-4.5,2.4L114.6,23.7z M117.8,17c0.2,1.5,0.8,2.8,1.8,3.9c0.9-1.1,1.6-2.5,1.8-3.9L117.8,17z"/>
		<path class="st3" d="M128.2,17.8v-0.9h3.6c0.1-1,0.1-1.9,0.1-2.9c0.4,0.1,0.6,0.1,0.9,0.1c0,0.9,0,1.8-0.1,2.8h4.1v0.9h-3.4
			c0.5,2.4,1.3,4.1,3.9,5.6l-0.6,0.7c-2.5-1.5-3.7-3.2-4.1-6.3c-0.6,3.2-1.8,4.9-4.4,6.3l-0.7-0.8c2.5-1.2,3.7-3.3,4.1-5.5
			L128.2,17.8z"/>
		<path class="st3" d="M144.6,23.5c0.3,0,0.4-0.2,0.4-0.4v-0.6h-4.7v-0.8h4.7v-0.5c0.6-0.2,1.2-0.4,1.2-0.4h-4.1V20h6.2v0.7
			c-0.8,0.4-1.6,0.7-2.4,0.9h4.4v0.8h-4.5v1c0.1,0.4-0.2,0.8-0.7,0.9c0,0,0,0,0,0c-0.5,0.1-1,0.1-1.5,0l-0.7-0.9H144.6z M146.2,18.8
			c-0.3-0.3-0.6-0.5-0.9-0.8c-0.4,0.3-0.8,0.5-1.3,0.7l-0.6-0.5c0.4-0.2,0.8-0.4,1.1-0.7c-0.3-0.1-0.7-0.2-1-0.3l0.5-0.6
			c0.4,0.1,0.8,0.2,1.2,0.4c0.2-0.2,0.4-0.4,0.7-0.7l0.6,0.5c-0.2,0.2-0.3,0.4-0.5,0.6c0.3,0.2,0.7,0.5,0.9,0.8l-0.5,0.5h1.9
			l0.1-0.8h-1.6v-0.8h1.6l0.1-0.6h-1.7v-0.8h1.8l0.1-0.5h-2v-0.8h3l-0.4,4.2h0.7v1.7h-0.8v-0.9h-7.7v1h-0.9v-1.8h0.8l-0.4-3.8
			c0.9-0.1,1.7-0.4,2.3-0.9l0.5,0.6c-0.6,0.4-1.2,0.7-1.9,0.9l0,0.4h1.8c0.3-0.2,0.6-0.3,0.9-0.5c-0.3-0.1-0.7-0.2-1-0.3l0.4-0.7
			c0.5,0.2,1,0.3,1.4,0.4c0.3-0.3,0.5-0.5,0.7-0.8l0.6,0.5c-0.2,0.3-0.4,0.5-0.6,0.7c0.3,0.2,0.5,0.4,0.8,0.6l-0.5,0.7
			c-0.3-0.3-0.6-0.6-0.9-0.8c-0.3,0.2-0.7,0.5-1.1,0.7l-0.5-0.4v0.7H142l0.1,0.6h1.7v0.8h-1.6l0.1,0.7H146.2z"/>
		<path class="st3" d="M163.2,20.1h-3.7v0.3h2.8v4h-0.9v-0.5h-6.6v0.6h-0.9v-4.1h2.7v-0.3h-3.8v-0.8h10.3L163.2,20.1z M158,16.4
			c0.8-0.1,1-0.5,1-1.1v-0.7h2.8v0.9c0,0.2,0,0.3,0.3,0.3h0.9v0.7h-1.3c-0.4,0-0.7-0.2-0.7-0.7v-0.4h-1.2c0,0.5-0.2,1-0.5,1.3l2.8,0
			v0.6c-0.2,0.3-0.5,0.6-0.8,0.9c0.6,0.2,1.2,0.3,1.9,0.3l-0.4,0.7c-0.8,0-1.5-0.2-2.2-0.5c-0.6,0.3-1.2,0.4-1.9,0.5l-0.3-0.4l0,0.2
			h-4.8v-4.3h4.8v0.7H156c0,0.1-0.1,0.2-0.1,0.2h2v0.6h-0.9v0.4h1.2L158,16.4z M155,16.7l-0.4-0.4c0.3-0.2,0.6-0.5,0.9-0.8h-1v2.9
			h0.2l-0.2-0.7c0.6,0,1.4-0.1,1.6-0.4h-1.4v-0.6L155,16.7z M154.9,21.6c0.6,0,1.4-0.1,1.6-0.5h-1.6v2h6.5v-2h-1.9c0,0,0,0.1,0,0.2
			c0,0.1,0.1,0.1,0.2,0.1h1.5v0.7h-1.6c-0.2,0-0.4-0.1-0.6-0.2c-0.2-0.2-0.3-0.5-0.3-0.8h-1.2c-0.3,0.6-0.9,1-1.5,1.1h4.6V23h-4.9
			v-0.6c-0.1,0-0.3,0-0.4,0L154.9,21.6z M156.2,16.6v-0.4h-0.6c-0.1,0.1-0.2,0.2-0.4,0.3L156.2,16.6z M157.7,18.3
			c-0.5-0.2-0.9-0.3-1.4-0.4c-0.3,0.2-0.6,0.4-1,0.4H157.7z M156.9,17.3L156.9,17.3c0.5,0.2,0.9,0.3,1.4,0.6l-0.2,0.5h0.4v0.3
			c0.5-0.1,1-0.2,1.4-0.3c-0.3-0.2-0.5-0.5-0.7-0.8h-0.3V17l-0.4,0.1l-0.1-0.3l0,0.4H156.9z M157.5,20.4h1.1v-0.3h-1.1V20.4z
			 M160,17.4c0.1,0.2,0.3,0.3,0.5,0.4c0.2-0.1,0.4-0.3,0.5-0.5L160,17.4z"/>
		<path class="st3" d="M166.2,24.5v-9.8h3v0.7l-0.9,2.5c0.3,0.3,0.5,0.7,0.7,1.1c0.4,0.7,0.4,1.5-0.1,2.2c-0.3,0.4-0.8,0.6-1.8,0.3
			L167,21l0,3.5H166.2z M167,20.6c0.4,0.2,0.9,0.4,1.2,0.1c0.3-0.7,0.1-1.5-0.5-2.1l-0.5-0.5l1-2.6H167L167,20.6z M169.4,19.3h5.6
			v0.8h-1.6v2.7c0,0.2,0.1,0.3,0.3,0.3h0.6c0.3,0,0.4-0.4,0.6-1.7l0.8,0.4c-0.3,1.3-0.4,2-1.4,2.1h-0.9c-0.8,0-0.9-0.5-0.9-1v-2.8
			h-0.8c-0.1,1.3-0.1,3.5-3.3,4.4l-0.6-0.8c2.5-0.6,3-2,3-3.7h-1.4V19.3z M174.4,17.2v-1h-4.4v1.1h-0.9v-1.9h2.6
			c-0.4-0.4-0.9-0.6-1.4-0.7L171,14c0.7,0.2,1.4,0.6,1.8,1.2l-0.2,0.1l2.7,0v1.8L174.4,17.2z M174.4,17.4v0.8h-4.3v-0.8L174.4,17.4z
			"/>
		<path class="st3" d="M86.2,74.1h-1.5v-9.6L81.8,71h-0.9L78,64.5v9.6h-1.4V62.9h2l2.8,6.2l2.7-6.2h2.1L86.2,74.1z"/>
		<path class="st3" d="M92.1,74.3c-1.3,0-2.4-0.4-3.1-1.1c-0.7-0.7-1.1-1.8-1.1-3.2c-0.1-1.2,0.3-2.3,1.1-3.3
			c0.7-0.8,1.7-1.2,2.8-1.2c0.5,0,0.9,0.1,1.4,0.2c0.4,0.1,0.8,0.4,1,0.7c0.3,0.3,0.5,0.7,0.7,1.2c0.2,0.5,0.3,1.1,0.2,1.7v0.8h-5.8
			c-0.1,0.8,0.2,1.6,0.7,2.2c0.5,0.5,1.3,0.8,2,0.8c0.3,0,0.6,0,0.9-0.1c0.3-0.1,0.5-0.2,0.8-0.3c0.2-0.1,0.4-0.2,0.6-0.3
			c0.2-0.1,0.3-0.2,0.4-0.3h0.1v1.5l-0.6,0.2c-0.2,0.1-0.4,0.2-0.7,0.2c-0.3,0.1-0.5,0.1-0.8,0.2C92.6,74.3,92.3,74.3,92.1,74.3z
			 M93.7,69c0-0.3,0-0.7-0.1-1c-0.1-0.3-0.2-0.5-0.3-0.7c-0.2-0.2-0.4-0.4-0.6-0.5c-0.3-0.1-0.6-0.2-1-0.2c-0.3,0-0.7,0-1,0.2
			c-0.5,0.2-1,0.7-1.2,1.2c-0.1,0.3-0.2,0.6-0.2,0.9H93.7z"/>
		<path class="st3" d="M103.2,74.1h-1.4v-0.8c-0.2,0.2-0.4,0.3-0.6,0.5c-0.4,0.3-0.8,0.4-1.2,0.6c-0.2,0.1-0.5,0.1-0.7,0.1
			c-0.4,0-0.9-0.1-1.3-0.3c-0.4-0.2-0.7-0.5-1-0.8c-0.3-0.4-0.5-0.9-0.6-1.4c-0.2-0.6-0.2-1.2-0.2-1.9c0-0.7,0.1-1.3,0.3-1.9
			c0.2-0.5,0.4-1,0.8-1.4c0.3-0.4,0.7-0.7,1.1-0.9c0.4-0.2,0.9-0.3,1.4-0.3c0.4,0,0.7,0,1.1,0.1c0.3,0.1,0.7,0.2,1,0.4v-3.6h1.4
			L103.2,74.1z M101.8,72v-4.8c-0.3-0.2-0.6-0.3-0.9-0.4c-0.3-0.1-0.6-0.1-0.9-0.1c-0.7,0-1.3,0.3-1.7,0.8c-0.5,0.7-0.7,1.5-0.6,2.4
			c0,0.8,0.1,1.6,0.5,2.3c0.3,0.5,0.9,0.8,1.5,0.8c0.4,0,0.8-0.1,1.1-0.3C101.1,72.5,101.5,72.3,101.8,72z"/>
		<path class="st3" d="M106.7,64.3h-1.6v-1.5h1.6V64.3z M106.6,74.1h-1.4v-8.4h1.4L106.6,74.1z"/>
		<path class="st3" d="M112.1,74.3c-0.5,0-1.1-0.1-1.6-0.3c-0.5-0.2-0.9-0.4-1.2-0.8c-0.4-0.4-0.6-0.9-0.8-1.4
			c-0.2-0.6-0.3-1.3-0.3-1.9c0-0.7,0.1-1.3,0.3-1.9c0.2-0.5,0.4-1,0.8-1.3c0.3-0.4,0.8-0.7,1.2-0.8c0.5-0.2,1-0.3,1.6-0.3
			c0.4,0,0.9,0.1,1.3,0.2c0.4,0.1,0.8,0.3,1.2,0.4v1.6h-0.1c-0.1-0.1-0.2-0.2-0.4-0.3c-0.2-0.1-0.4-0.2-0.6-0.3
			c-0.2-0.1-0.5-0.2-0.7-0.3c-0.2-0.1-0.5-0.1-0.8-0.1c-0.7,0-1.3,0.3-1.8,0.8c-0.9,1.4-0.9,3.2,0,4.7c0.4,0.6,1.1,0.9,1.8,0.8
			c0.5,0,0.9-0.1,1.3-0.3c0.4-0.2,0.8-0.4,1.1-0.7h0.1v1.6l-0.5,0.2c-0.2,0.1-0.4,0.2-0.6,0.2c-0.2,0.1-0.5,0.1-0.6,0.2
			C112.6,74.3,112.3,74.3,112.1,74.3z"/>
		<path class="st3" d="M120.8,73.2c-0.1,0.1-0.3,0.2-0.5,0.4c-0.2,0.1-0.4,0.3-0.6,0.4c-0.2,0.1-0.5,0.2-0.7,0.3
			c-0.3,0.1-0.6,0.1-1,0.1c-0.7,0-1.3-0.3-1.8-0.7c-0.2-0.2-0.4-0.5-0.5-0.9c-0.1-0.3-0.2-0.7-0.2-1.1c0-0.5,0.1-1,0.4-1.5
			c0.3-0.4,0.7-0.8,1.2-1c0.5-0.2,1.1-0.4,1.7-0.4c0.6-0.1,1.3-0.1,2.1-0.2v-0.3c0-0.3,0-0.5-0.1-0.8c-0.1-0.2-0.2-0.4-0.4-0.5
			c-0.2-0.1-0.4-0.2-0.7-0.2c-0.3,0-0.5-0.1-0.8-0.1c-0.4,0-0.8,0.1-1.2,0.1c-0.5,0.1-0.9,0.2-1.3,0.4h-0.1v-1.4
			c0.3-0.1,0.6-0.2,1.1-0.2c0.5-0.1,1-0.1,1.4-0.1c0.5,0,1,0,1.4,0.1c0.4,0.1,0.7,0.3,1.1,0.5c0.3,0.2,0.5,0.5,0.7,0.9
			c0.2,0.4,0.2,0.9,0.2,1.3v5.7h-1.4V73.2z M120.8,72v-2.3l-1.3,0.1c-0.4,0-0.8,0.1-1.2,0.2c-0.3,0.1-0.7,0.3-0.9,0.5
			c-0.3,0.3-0.4,0.6-0.4,1c0,0.4,0.1,0.8,0.4,1.1c0.3,0.3,0.8,0.4,1.2,0.4c0.4,0,0.8-0.1,1.2-0.3C120.1,72.5,120.4,72.3,120.8,72
			L120.8,72z"/>
		<path class="st3" d="M125.5,74.1h-1.4V62.4h1.4V74.1z"/>
		<path class="st3" d="M137.5,74.3c-0.7,0-1.4-0.1-2-0.4c-0.6-0.2-1.1-0.6-1.6-1.1c-0.5-0.5-0.8-1.1-1-1.8c-0.3-0.8-0.4-1.6-0.4-2.5
			c0-0.8,0.1-1.7,0.4-2.4c0.2-0.7,0.6-1.3,1-1.8c0.4-0.5,1-0.9,1.6-1.2c0.6-0.3,1.3-0.4,2-0.4c0.4,0,0.7,0,1.1,0.1
			c0.3,0.1,0.6,0.1,0.9,0.2c0.3,0.1,0.5,0.2,0.7,0.3c0.3,0.1,0.5,0.2,0.7,0.4v1.8h-0.1c-0.1-0.1-0.3-0.3-0.5-0.4
			c-0.5-0.4-1.1-0.7-1.7-0.9c-0.4-0.1-0.8-0.2-1.2-0.1c-0.5,0-0.9,0.1-1.3,0.3c-0.4,0.2-0.8,0.5-1.1,0.9c-0.3,0.4-0.6,0.9-0.7,1.4
			c-0.2,0.6-0.3,1.3-0.3,1.9c0,0.7,0.1,1.3,0.3,2c0.2,0.5,0.4,1,0.8,1.4c0.3,0.4,0.7,0.6,1.1,0.8c0.4,0.2,0.9,0.3,1.3,0.3
			c0.4,0,0.8,0,1.2-0.2c0.3-0.1,0.7-0.2,1-0.4c0.3-0.1,0.5-0.3,0.7-0.5c0.2-0.2,0.4-0.3,0.5-0.4h0.1v1.8l-0.7,0.3
			c-0.3,0.1-0.5,0.2-0.8,0.3c-0.3,0.1-0.6,0.2-0.9,0.2C138.2,74.3,137.9,74.3,137.5,74.3z"/>
		<path class="st3" d="M146.1,74.3c-1.3,0-2.4-0.4-3.1-1.1c-0.7-0.7-1.1-1.8-1.1-3.2c-0.1-1.2,0.3-2.3,1.1-3.3
			c0.7-0.8,1.7-1.2,2.8-1.2c0.5,0,0.9,0.1,1.4,0.2c0.4,0.1,0.8,0.4,1,0.7c0.3,0.3,0.5,0.7,0.7,1.2c0.2,0.5,0.3,1.1,0.2,1.7v0.8h-5.8
			c-0.1,0.8,0.2,1.6,0.7,2.2c0.5,0.5,1.3,0.8,2,0.8c0.3,0,0.6,0,0.9-0.1c0.3-0.1,0.5-0.2,0.8-0.3c0.2-0.1,0.4-0.2,0.6-0.3
			c0.2-0.1,0.3-0.2,0.4-0.3h0.1v1.5l-0.6,0.2c-0.2,0.1-0.4,0.2-0.7,0.2c-0.3,0.1-0.5,0.1-0.7,0.2C146.6,74.3,146.4,74.3,146.1,74.3z
			 M147.7,69c0-0.3-0.1-0.7-0.1-1c-0.1-0.3-0.2-0.5-0.3-0.7c-0.2-0.2-0.4-0.4-0.6-0.5c-0.3-0.1-0.6-0.2-1-0.2c-0.3,0-0.7,0-1,0.2
			c-0.3,0.1-0.5,0.3-0.7,0.5c-0.2,0.2-0.4,0.5-0.5,0.7c-0.1,0.3-0.2,0.6-0.2,0.9H147.7z"/>
		<path class="st3" d="M157.3,74.1h-1.4v-4.8c0-0.4,0-0.7-0.1-1.1c0-0.3-0.1-0.5-0.2-0.8c-0.1-0.2-0.3-0.4-0.5-0.5
			c-0.3-0.1-0.5-0.2-0.8-0.2c-0.4,0-0.7,0.1-1.1,0.3c-0.4,0.2-0.8,0.4-1.1,0.7v6.2h-1.4v-8.4h1.4v0.9c0.4-0.3,0.8-0.6,1.2-0.9
			c0.4-0.2,0.8-0.3,1.3-0.3c0.7,0,1.4,0.3,1.9,0.8c0.5,0.7,0.8,1.5,0.7,2.4L157.3,74.1z"/>
		<path class="st3" d="M161.7,74.3c-0.7,0-1.3-0.2-1.8-0.7c-0.4-0.4-0.6-1.1-0.6-2.1v-4.6h-1v-1.2h1v-2.4h1.4v2.4h2.6v1.2h-2.6v4
			c0,0.4,0,0.8,0,1c0,0.2,0.1,0.4,0.2,0.6c0.1,0.2,0.2,0.3,0.4,0.4c0.2,0.1,0.5,0.1,0.8,0.1c0.2,0,0.4,0,0.7-0.1
			c0.2,0,0.3-0.1,0.5-0.2h0.1V74c-0.3,0.1-0.5,0.1-0.8,0.2C162.2,74.2,162,74.3,161.7,74.3z"/>
		<path class="st3" d="M168.8,67.2L168.8,67.2c-0.2,0-0.3-0.1-0.4-0.1c-0.1,0-0.3,0-0.4,0c-0.4,0-0.8,0.1-1.1,0.2
			c-0.4,0.2-0.8,0.4-1.1,0.7v5.9h-1.4v-8.4h1.4V67c0.4-0.4,0.9-0.7,1.3-1c0.3-0.2,0.7-0.3,1.1-0.3c0.1,0,0.3,0,0.3,0l0.2,0
			L168.8,67.2z"/>
		<path class="st3" d="M173.6,74.3c-1.3,0-2.4-0.4-3.1-1.1c-0.7-0.7-1.1-1.8-1.1-3.2c-0.1-1.2,0.3-2.3,1.1-3.3
			c0.7-0.8,1.7-1.2,2.8-1.2c0.5,0,0.9,0.1,1.4,0.2c0.4,0.1,0.8,0.4,1,0.7c0.3,0.3,0.5,0.7,0.7,1.2c0.2,0.5,0.3,1.1,0.2,1.7v0.8h-5.8
			c-0.1,0.8,0.2,1.6,0.7,2.2c0.5,0.5,1.3,0.8,2,0.8c0.3,0,0.6,0,0.9-0.1c0.3-0.1,0.5-0.2,0.8-0.3c0.2-0.1,0.4-0.2,0.6-0.3
			c0.2-0.1,0.3-0.2,0.4-0.3h0.1v1.5l-0.6,0.2c-0.2,0.1-0.4,0.2-0.7,0.2c-0.3,0.1-0.5,0.1-0.7,0.2C174.2,74.3,173.9,74.3,173.6,74.3z
			 M175.3,69c0-0.3-0.1-0.7-0.1-1c-0.1-0.3-0.2-0.5-0.3-0.7c-0.2-0.2-0.4-0.4-0.6-0.5c-0.3-0.1-0.6-0.2-1-0.2c-0.3,0-0.7,0-1,0.2
			c-0.3,0.1-0.5,0.3-0.7,0.5c-0.2,0.2-0.4,0.5-0.5,0.7c-0.1,0.3-0.2,0.6-0.2,0.9H175.3z"/>
		<path class="st3" d="M88.9,29.3c-3.9,0-7.1,1.3-9.4,3.9c-2.3,2.6-3.5,6.2-3.5,10.6c0,4.6,1.2,8.2,3.5,10.7
			c2.3,2.5,5.4,3.8,9.4,3.8c1,0,2,0,3-0.2c0.8-0.2,1.6-0.4,2.3-0.6c0.7-0.2,1.3-0.5,2-0.8l1.4-0.7v-5.8c-0.3,0.2-0.6,0.5-0.9,0.8
			c-0.5,0.5-1.1,0.9-1.7,1.3c-0.7,0.5-1.4,0.8-2.2,1.1c-1.8,0.7-3.8,0.7-5.6,0c-1-0.4-1.9-1-2.6-1.7c-0.9-0.9-1.5-2-1.9-3.2
			C82.2,47,82,45.4,82,43.8c0-1.6,0.2-3.1,0.7-4.6c0.4-1.2,1-2.3,1.8-3.2c0.7-0.8,1.6-1.5,2.6-1.9c0.9-0.4,1.9-0.5,2.9-0.5
			c0.9,0,1.8,0.2,2.6,0.5c0.8,0.3,1.5,0.7,2.2,1.1c0.6,0.4,1.2,0.8,1.8,1.3c0.4,0.4,0.8,0.7,1,0.9v-5.9c-0.4-0.2-0.9-0.4-1.5-0.7
			c-0.6-0.3-1.3-0.6-2-0.8c-0.8-0.2-1.6-0.4-2.4-0.5C90.8,29.4,89.9,29.3,88.9,29.3z"/>
		<path class="st3" d="M101.2,29.9v17.9c0,3.5,0.9,6.1,2.8,7.8c1.9,1.8,4.6,2.7,8.1,2.7c3.6,0,6.4-0.9,8.2-2.7s2.7-4.4,2.7-7.8V29.9
			h-5.8v17.5c0,2.2-0.4,3.8-1.2,4.9c-0.8,1.1-2.2,1.6-3.9,1.6s-3.1-0.6-3.9-1.7c-0.8-1.2-1.2-2.7-1.2-4.8V29.9H101.2z"/>
		<path class="st3" d="M143.5,57.7h5.8V29.9h-5.8v10.6h-10.5V29.9h-5.8v27.8h5.8V44.9h10.5V57.7z"/>
		<path class="st3" d="M169,57.7h7l-9.8-15l9.3-12.9h-6.6l-9.6,14.1V29.9h-5.8v27.8h5.8v-9.4l1.9-2.8L169,57.7z"/>
	</g>
</g>
</svg>
